<mxfile host="app.diagrams.net" agent="Mozilla/5.0 (Windows NT 10.0; Win64; x64) AppleWebKit/537.36 (KHTML, like Gecko) Chrome/131.0.0.0 Safari/537.36 Edg/131.0.0.0" version="25.0.3">
  <diagram id="C5RBs43oDa-KdzZeNtuy" name="Page-1">
    <mxGraphModel dx="1434" dy="752" grid="1" gridSize="10" guides="1" tooltips="1" connect="1" arrows="1" fold="1" page="1" pageScale="1" pageWidth="827" pageHeight="1169" math="0" shadow="0">
      <root>
        <mxCell id="WIyWlLk6GJQsqaUBKTNV-0" />
        <mxCell id="WIyWlLk6GJQsqaUBKTNV-1" parent="WIyWlLk6GJQsqaUBKTNV-0" />
        <mxCell id="jjSxJIZ4rwsZXviPy_cr-5" value="" style="edgeStyle=orthogonalEdgeStyle;rounded=0;orthogonalLoop=1;jettySize=auto;html=1;" edge="1" parent="WIyWlLk6GJQsqaUBKTNV-1" target="jjSxJIZ4rwsZXviPy_cr-3">
          <mxGeometry relative="1" as="geometry">
            <mxPoint x="380" y="42" as="sourcePoint" />
            <Array as="points">
              <mxPoint x="380" y="42" />
              <mxPoint x="380" y="110" />
              <mxPoint x="220" y="110" />
            </Array>
          </mxGeometry>
        </mxCell>
        <mxCell id="jjSxJIZ4rwsZXviPy_cr-45" style="edgeStyle=orthogonalEdgeStyle;rounded=0;orthogonalLoop=1;jettySize=auto;html=1;exitX=0.5;exitY=1;exitDx=0;exitDy=0;" edge="1" parent="WIyWlLk6GJQsqaUBKTNV-1">
          <mxGeometry relative="1" as="geometry">
            <mxPoint x="380" y="50" as="sourcePoint" />
            <mxPoint x="820" y="220" as="targetPoint" />
            <Array as="points">
              <mxPoint x="390" y="110" />
              <mxPoint x="420" y="110" />
            </Array>
          </mxGeometry>
        </mxCell>
        <mxCell id="WIyWlLk6GJQsqaUBKTNV-3" value="未登录&lt;br&gt;（无token）" style="rounded=1;whiteSpace=wrap;html=1;fontSize=12;glass=0;strokeWidth=1;shadow=0;" parent="WIyWlLk6GJQsqaUBKTNV-1" vertex="1">
          <mxGeometry x="320" y="10" width="120" height="40" as="geometry" />
        </mxCell>
        <mxCell id="jjSxJIZ4rwsZXviPy_cr-52" style="edgeStyle=orthogonalEdgeStyle;rounded=0;orthogonalLoop=1;jettySize=auto;html=1;exitX=0.5;exitY=1;exitDx=0;exitDy=0;" edge="1" parent="WIyWlLk6GJQsqaUBKTNV-1" source="jjSxJIZ4rwsZXviPy_cr-0">
          <mxGeometry relative="1" as="geometry">
            <mxPoint x="220" y="220" as="targetPoint" />
            <Array as="points">
              <mxPoint x="580" y="110" />
              <mxPoint x="221" y="110" />
            </Array>
          </mxGeometry>
        </mxCell>
        <mxCell id="jjSxJIZ4rwsZXviPy_cr-55" style="edgeStyle=orthogonalEdgeStyle;rounded=0;orthogonalLoop=1;jettySize=auto;html=1;entryX=0.5;entryY=0;entryDx=0;entryDy=0;" edge="1" parent="WIyWlLk6GJQsqaUBKTNV-1" source="jjSxJIZ4rwsZXviPy_cr-0" target="jjSxJIZ4rwsZXviPy_cr-4">
          <mxGeometry relative="1" as="geometry">
            <Array as="points">
              <mxPoint x="580" y="110" />
              <mxPoint x="820" y="110" />
            </Array>
          </mxGeometry>
        </mxCell>
        <mxCell id="jjSxJIZ4rwsZXviPy_cr-0" value="登录已过期&lt;br&gt;（有token但已过期）" style="rounded=1;whiteSpace=wrap;html=1;fontSize=12;glass=0;strokeWidth=1;shadow=0;" vertex="1" parent="WIyWlLk6GJQsqaUBKTNV-1">
          <mxGeometry x="520" y="10" width="120" height="40" as="geometry" />
        </mxCell>
        <mxCell id="jjSxJIZ4rwsZXviPy_cr-56" style="edgeStyle=orthogonalEdgeStyle;rounded=0;orthogonalLoop=1;jettySize=auto;html=1;entryX=0.5;entryY=0;entryDx=0;entryDy=0;" edge="1" parent="WIyWlLk6GJQsqaUBKTNV-1" source="jjSxJIZ4rwsZXviPy_cr-1" target="jjSxJIZ4rwsZXviPy_cr-3">
          <mxGeometry relative="1" as="geometry">
            <Array as="points">
              <mxPoint x="780" y="110" />
              <mxPoint x="220" y="110" />
            </Array>
          </mxGeometry>
        </mxCell>
        <mxCell id="jjSxJIZ4rwsZXviPy_cr-57" style="edgeStyle=orthogonalEdgeStyle;rounded=0;orthogonalLoop=1;jettySize=auto;html=1;" edge="1" parent="WIyWlLk6GJQsqaUBKTNV-1" source="jjSxJIZ4rwsZXviPy_cr-1">
          <mxGeometry relative="1" as="geometry">
            <mxPoint x="820" y="210" as="targetPoint" />
            <Array as="points">
              <mxPoint x="780" y="110" />
              <mxPoint x="821" y="110" />
            </Array>
          </mxGeometry>
        </mxCell>
        <mxCell id="jjSxJIZ4rwsZXviPy_cr-1" value="登录&lt;br&gt;（有token且有期）" style="rounded=1;whiteSpace=wrap;html=1;fontSize=12;glass=0;strokeWidth=1;shadow=0;" vertex="1" parent="WIyWlLk6GJQsqaUBKTNV-1">
          <mxGeometry x="720" y="10" width="120" height="40" as="geometry" />
        </mxCell>
        <mxCell id="jjSxJIZ4rwsZXviPy_cr-8" value="" style="edgeStyle=orthogonalEdgeStyle;rounded=0;orthogonalLoop=1;jettySize=auto;html=1;" edge="1" parent="WIyWlLk6GJQsqaUBKTNV-1" source="jjSxJIZ4rwsZXviPy_cr-3" target="jjSxJIZ4rwsZXviPy_cr-7">
          <mxGeometry relative="1" as="geometry" />
        </mxCell>
        <mxCell id="jjSxJIZ4rwsZXviPy_cr-3" value="login页面" style="rounded=0;whiteSpace=wrap;html=1;fontSize=12;glass=0;strokeWidth=1;shadow=0;" vertex="1" parent="WIyWlLk6GJQsqaUBKTNV-1">
          <mxGeometry x="160" y="220" width="120" height="40" as="geometry" />
        </mxCell>
        <mxCell id="jjSxJIZ4rwsZXviPy_cr-47" value="" style="edgeStyle=orthogonalEdgeStyle;rounded=0;orthogonalLoop=1;jettySize=auto;html=1;" edge="1" parent="WIyWlLk6GJQsqaUBKTNV-1" source="jjSxJIZ4rwsZXviPy_cr-4" target="jjSxJIZ4rwsZXviPy_cr-46">
          <mxGeometry relative="1" as="geometry" />
        </mxCell>
        <mxCell id="jjSxJIZ4rwsZXviPy_cr-4" value="ssologin页面" style="rounded=0;whiteSpace=wrap;html=1;fontSize=12;glass=0;strokeWidth=1;shadow=0;" vertex="1" parent="WIyWlLk6GJQsqaUBKTNV-1">
          <mxGeometry x="760" y="210" width="120" height="40" as="geometry" />
        </mxCell>
        <mxCell id="jjSxJIZ4rwsZXviPy_cr-18" value="" style="edgeStyle=orthogonalEdgeStyle;rounded=0;orthogonalLoop=1;jettySize=auto;html=1;" edge="1" parent="WIyWlLk6GJQsqaUBKTNV-1" source="jjSxJIZ4rwsZXviPy_cr-6" target="jjSxJIZ4rwsZXviPy_cr-17">
          <mxGeometry relative="1" as="geometry" />
        </mxCell>
        <mxCell id="jjSxJIZ4rwsZXviPy_cr-6" value="transfer页面" style="rounded=0;whiteSpace=wrap;html=1;fontSize=12;glass=0;strokeWidth=1;shadow=0;" vertex="1" parent="WIyWlLk6GJQsqaUBKTNV-1">
          <mxGeometry x="440" y="480" width="120" height="40" as="geometry" />
        </mxCell>
        <mxCell id="jjSxJIZ4rwsZXviPy_cr-10" value="" style="edgeStyle=orthogonalEdgeStyle;rounded=0;orthogonalLoop=1;jettySize=auto;html=1;exitX=0;exitY=0.5;exitDx=0;exitDy=0;" edge="1" parent="WIyWlLk6GJQsqaUBKTNV-1" source="jjSxJIZ4rwsZXviPy_cr-7" target="jjSxJIZ4rwsZXviPy_cr-9">
          <mxGeometry relative="1" as="geometry">
            <Array as="points">
              <mxPoint x="100" y="350" />
              <mxPoint x="100" y="240" />
            </Array>
          </mxGeometry>
        </mxCell>
        <mxCell id="jjSxJIZ4rwsZXviPy_cr-11" value="否" style="edgeLabel;html=1;align=center;verticalAlign=middle;resizable=0;points=[];" vertex="1" connectable="0" parent="jjSxJIZ4rwsZXviPy_cr-10">
          <mxGeometry x="-0.475" y="-3" relative="1" as="geometry">
            <mxPoint as="offset" />
          </mxGeometry>
        </mxCell>
        <mxCell id="jjSxJIZ4rwsZXviPy_cr-13" style="edgeStyle=orthogonalEdgeStyle;rounded=0;orthogonalLoop=1;jettySize=auto;html=1;entryX=0.5;entryY=0;entryDx=0;entryDy=0;" edge="1" parent="WIyWlLk6GJQsqaUBKTNV-1" source="jjSxJIZ4rwsZXviPy_cr-7" target="jjSxJIZ4rwsZXviPy_cr-6">
          <mxGeometry relative="1" as="geometry">
            <mxPoint x="220" y="420" as="targetPoint" />
          </mxGeometry>
        </mxCell>
        <mxCell id="jjSxJIZ4rwsZXviPy_cr-14" value="是" style="edgeLabel;html=1;align=center;verticalAlign=middle;resizable=0;points=[];" vertex="1" connectable="0" parent="jjSxJIZ4rwsZXviPy_cr-13">
          <mxGeometry y="1" relative="1" as="geometry">
            <mxPoint as="offset" />
          </mxGeometry>
        </mxCell>
        <mxCell id="jjSxJIZ4rwsZXviPy_cr-7" value="是否成功登录" style="rhombus;whiteSpace=wrap;html=1;shadow=0;fontFamily=Helvetica;fontSize=12;align=center;strokeWidth=1;spacing=6;spacingTop=-4;" vertex="1" parent="WIyWlLk6GJQsqaUBKTNV-1">
          <mxGeometry x="170" y="310" width="100" height="80" as="geometry" />
        </mxCell>
        <mxCell id="jjSxJIZ4rwsZXviPy_cr-9" value="" style="shape=waypoint;sketch=0;size=6;pointerEvents=1;points=[];fillColor=default;resizable=0;rotatable=0;perimeter=centerPerimeter;snapToPoint=1;shadow=0;strokeWidth=1;spacing=6;spacingTop=-4;" vertex="1" parent="WIyWlLk6GJQsqaUBKTNV-1">
          <mxGeometry x="150" y="230" width="20" height="20" as="geometry" />
        </mxCell>
        <mxCell id="jjSxJIZ4rwsZXviPy_cr-23" value="" style="edgeStyle=orthogonalEdgeStyle;rounded=0;orthogonalLoop=1;jettySize=auto;html=1;" edge="1" parent="WIyWlLk6GJQsqaUBKTNV-1" source="jjSxJIZ4rwsZXviPy_cr-17" target="jjSxJIZ4rwsZXviPy_cr-19">
          <mxGeometry relative="1" as="geometry" />
        </mxCell>
        <mxCell id="jjSxJIZ4rwsZXviPy_cr-24" value="否" style="edgeLabel;html=1;align=center;verticalAlign=middle;resizable=0;points=[];" vertex="1" connectable="0" parent="jjSxJIZ4rwsZXviPy_cr-23">
          <mxGeometry y="-2" relative="1" as="geometry">
            <mxPoint as="offset" />
          </mxGeometry>
        </mxCell>
        <mxCell id="jjSxJIZ4rwsZXviPy_cr-36" value="" style="edgeStyle=orthogonalEdgeStyle;rounded=0;orthogonalLoop=1;jettySize=auto;html=1;" edge="1" parent="WIyWlLk6GJQsqaUBKTNV-1" source="jjSxJIZ4rwsZXviPy_cr-17" target="jjSxJIZ4rwsZXviPy_cr-35">
          <mxGeometry relative="1" as="geometry" />
        </mxCell>
        <mxCell id="jjSxJIZ4rwsZXviPy_cr-17" value="用户信息&lt;br&gt;是否完善" style="rhombus;whiteSpace=wrap;html=1;shadow=0;fontFamily=Helvetica;fontSize=12;align=center;strokeWidth=1;spacing=6;spacingTop=-4;" vertex="1" parent="WIyWlLk6GJQsqaUBKTNV-1">
          <mxGeometry x="450" y="580" width="100" height="80" as="geometry" />
        </mxCell>
        <mxCell id="jjSxJIZ4rwsZXviPy_cr-19" value="用户信息填写页面" style="rounded=0;whiteSpace=wrap;html=1;fontSize=12;glass=0;strokeWidth=1;shadow=0;" vertex="1" parent="WIyWlLk6GJQsqaUBKTNV-1">
          <mxGeometry x="340" y="770" width="120" height="40" as="geometry" />
        </mxCell>
        <mxCell id="jjSxJIZ4rwsZXviPy_cr-38" value="" style="edgeStyle=orthogonalEdgeStyle;rounded=0;orthogonalLoop=1;jettySize=auto;html=1;" edge="1" parent="WIyWlLk6GJQsqaUBKTNV-1" source="jjSxJIZ4rwsZXviPy_cr-35" target="jjSxJIZ4rwsZXviPy_cr-37">
          <mxGeometry relative="1" as="geometry" />
        </mxCell>
        <mxCell id="jjSxJIZ4rwsZXviPy_cr-39" value="" style="edgeStyle=orthogonalEdgeStyle;rounded=0;orthogonalLoop=1;jettySize=auto;html=1;" edge="1" parent="WIyWlLk6GJQsqaUBKTNV-1" source="jjSxJIZ4rwsZXviPy_cr-35" target="jjSxJIZ4rwsZXviPy_cr-37">
          <mxGeometry relative="1" as="geometry" />
        </mxCell>
        <mxCell id="jjSxJIZ4rwsZXviPy_cr-40" value="" style="edgeStyle=orthogonalEdgeStyle;rounded=0;orthogonalLoop=1;jettySize=auto;html=1;" edge="1" parent="WIyWlLk6GJQsqaUBKTNV-1" source="jjSxJIZ4rwsZXviPy_cr-35" target="jjSxJIZ4rwsZXviPy_cr-37">
          <mxGeometry relative="1" as="geometry" />
        </mxCell>
        <mxCell id="jjSxJIZ4rwsZXviPy_cr-43" value="否" style="edgeLabel;html=1;align=center;verticalAlign=middle;resizable=0;points=[];" vertex="1" connectable="0" parent="jjSxJIZ4rwsZXviPy_cr-40">
          <mxGeometry x="0.3667" y="1" relative="1" as="geometry">
            <mxPoint as="offset" />
          </mxGeometry>
        </mxCell>
        <mxCell id="jjSxJIZ4rwsZXviPy_cr-42" style="edgeStyle=orthogonalEdgeStyle;rounded=0;orthogonalLoop=1;jettySize=auto;html=1;entryX=0.5;entryY=0;entryDx=0;entryDy=0;" edge="1" parent="WIyWlLk6GJQsqaUBKTNV-1" source="jjSxJIZ4rwsZXviPy_cr-35" target="jjSxJIZ4rwsZXviPy_cr-41">
          <mxGeometry relative="1" as="geometry" />
        </mxCell>
        <mxCell id="jjSxJIZ4rwsZXviPy_cr-44" value="是" style="edgeLabel;html=1;align=center;verticalAlign=middle;resizable=0;points=[];" vertex="1" connectable="0" parent="jjSxJIZ4rwsZXviPy_cr-42">
          <mxGeometry x="0.27" relative="1" as="geometry">
            <mxPoint as="offset" />
          </mxGeometry>
        </mxCell>
        <mxCell id="jjSxJIZ4rwsZXviPy_cr-35" value="query&lt;br&gt;中是否有id" style="rhombus;whiteSpace=wrap;html=1;shadow=0;strokeWidth=1;spacing=6;spacingTop=-4;" vertex="1" parent="WIyWlLk6GJQsqaUBKTNV-1">
          <mxGeometry x="550" y="770" width="80" height="80" as="geometry" />
        </mxCell>
        <mxCell id="jjSxJIZ4rwsZXviPy_cr-37" value="跳转首页" style="whiteSpace=wrap;html=1;shadow=0;strokeWidth=1;spacing=6;spacingTop=-4;" vertex="1" parent="WIyWlLk6GJQsqaUBKTNV-1">
          <mxGeometry x="450" y="950" width="120" height="60" as="geometry" />
        </mxCell>
        <mxCell id="jjSxJIZ4rwsZXviPy_cr-41" value="跳转签到详情页面" style="whiteSpace=wrap;html=1;shadow=0;strokeWidth=1;spacing=6;spacingTop=-4;" vertex="1" parent="WIyWlLk6GJQsqaUBKTNV-1">
          <mxGeometry x="630" y="950" width="120" height="60" as="geometry" />
        </mxCell>
        <mxCell id="jjSxJIZ4rwsZXviPy_cr-48" style="edgeStyle=orthogonalEdgeStyle;rounded=0;orthogonalLoop=1;jettySize=auto;html=1;entryX=0.5;entryY=0;entryDx=0;entryDy=0;" edge="1" parent="WIyWlLk6GJQsqaUBKTNV-1" source="jjSxJIZ4rwsZXviPy_cr-46" target="jjSxJIZ4rwsZXviPy_cr-6">
          <mxGeometry relative="1" as="geometry" />
        </mxCell>
        <mxCell id="jjSxJIZ4rwsZXviPy_cr-49" value="是" style="edgeLabel;html=1;align=center;verticalAlign=middle;resizable=0;points=[];" vertex="1" connectable="0" parent="jjSxJIZ4rwsZXviPy_cr-48">
          <mxGeometry x="-0.5081" y="5" relative="1" as="geometry">
            <mxPoint as="offset" />
          </mxGeometry>
        </mxCell>
        <mxCell id="jjSxJIZ4rwsZXviPy_cr-51" value="" style="edgeStyle=orthogonalEdgeStyle;rounded=0;orthogonalLoop=1;jettySize=auto;html=1;" edge="1" parent="WIyWlLk6GJQsqaUBKTNV-1" source="jjSxJIZ4rwsZXviPy_cr-46" target="jjSxJIZ4rwsZXviPy_cr-50">
          <mxGeometry relative="1" as="geometry" />
        </mxCell>
        <mxCell id="jjSxJIZ4rwsZXviPy_cr-46" value="是否成功登录" style="rhombus;whiteSpace=wrap;html=1;shadow=0;fontFamily=Helvetica;fontSize=12;align=center;strokeWidth=1;spacing=6;spacingTop=-4;" vertex="1" parent="WIyWlLk6GJQsqaUBKTNV-1">
          <mxGeometry x="770" y="310" width="100" height="80" as="geometry" />
        </mxCell>
        <mxCell id="jjSxJIZ4rwsZXviPy_cr-50" value="抛出错误" style="rounded=1;whiteSpace=wrap;html=1;shadow=0;strokeWidth=1;spacing=6;spacingTop=-4;" vertex="1" parent="WIyWlLk6GJQsqaUBKTNV-1">
          <mxGeometry x="940" y="320" width="120" height="60" as="geometry" />
        </mxCell>
      </root>
    </mxGraphModel>
  </diagram>
</mxfile>
